<?xml version="1.0"?>
<svg xmlns="http://www.w3.org/2000/svg" height="512px" viewBox="0 0 512.0005 512" width="512px"><g><path d="m329.074219 409.855469c12.597656 12.601562 3.675781 34.144531-14.144531 34.144531h-234.929688c-44.183594 0-80-35.816406-80-80v-216c0-6.183594.707031-12.207031 2.042969-17.988281 3.523437-15.273438 22.539062-20.648438 33.625-9.5625 4.875 4.875 6.878906 11.910156 5.339843 18.628906-.660156 2.871094-1.007812 5.855469-1.007812 8.921875v26.121094h45.054688c5.300781 0 10.390624 2.105468 14.140624 5.859375 12.597657 12.597656 3.675782 34.019531-14.140624 34.019531h-45.054688v150c0 22.089844 17.910156 40 40 40h234.929688c5.304687 0 10.394531 2.105469 14.144531 5.855469zm142.925781-145.734375v-50h-229.59375l189.871094 189.871094c21.929687-.152344 39.722656-18.03125 39.722656-39.992188 0-11.046875 8.953125-20 20-20s20 8.953125 20 20c0 32.3125-19.269531 60.191406-46.910156 72.804688l41.050781 41.050781c7.8125 7.8125 7.8125 20.476562 0 28.285156-3.902344 3.90625-9.019531 5.859375-14.140625 5.859375-5.117188 0-10.238281-1.953125-14.140625-5.859375l-472-472c-7.8125-7.808594-7.8125-20.472656 0-28.28125 7.808594-7.8125 20.472656-7.8125 28.28125 0l62.144531 62.140625h335.714844c44.113281 0 80 35.886719 80 80v116.121094c0 11.046875-8.953125 20-20 20s-20-8.953125-20-20zm0-90v-26.121094c0-22.058594-17.945312-40-40-40h-295.714844l66.121094 66.121094zm0 0" data-original="#000000" class="active-path" data-old_color="#000000" fill="#009DA3"/></g> </svg>
